<?xml version="1.0"?>
<svg xmlns="http://www.w3.org/2000/svg" xmlns:xlink="http://www.w3.org/1999/xlink" xmlns:svgjs="http://svgjs.com/svgjs" version="1.1" width="512" height="512" x="0" y="0" viewBox="0 0 395.98486 395" style="enable-background:new 0 0 512 512" xml:space="preserve" class=""><g><path xmlns="http://www.w3.org/2000/svg" d="m318.136719 354.3125c-8.652344-7.105469-16.132813-15.53125-22.160157-24.96875 6.917969 3.429688 14.453126 5.429688 22.160157 5.890625 7.703125-.464844 15.234375-2.472656 22.148437-5.902344-6.019531 9.441407-13.496094 17.871094-22.148437 24.980469zm-19.714844-52.738281c3.8125 3.648437 8.9375 5.59375 14.210937 5.390625h11.03125c5.269532.199218 10.398438-1.75 14.207032-5.398438 1.503906 2.9375 3.292968 6.210938 5.757812 10.195313-7.730468 4.90625-16.421875 8.089843-25.492187 9.335937-9.0625-1.25-17.75-4.433594-25.476563-9.335937 2.46875-3.992188 4.277344-7.265625 5.761719-10.203125zm16.96875-93.546875h5.269531c.285156 0 28.03125 1.152344 29.019532 18.085937.859374 8.226563.351562 16.539063-1.507813 24.597657-.789063 2.984374-1.214844 6.058593-1.261719 9.144531 0 .574219.039063 1.125.0625 1.691406v.21875c0 .867187.050782 1.75.097656 2.605469 1.371094 5.214844-.925781 10.703125-5.601562 13.386718-3.835938 2.929688-7.28125 6.339844-10.25 10.148438-3.433594 4.152344-4.191406 4.945312-7.566406 4.945312h-11.019532c-3.375 0-4.132812-.785156-7.566406-4.945312-2.964844-3.8125-6.410156-7.222656-10.246094-10.15625-4.675781-2.6875-6.96875-8.171875-5.597656-13.386719.046875-.847656.0625-1.730469.097656-2.605469 0-.070312 0-.140624 0-.21875 0-.566406.0625-1.117187.0625-1.691406-.019531-1.222656-.117187-2.441406-.296874-3.652344v-.148437c-.238282-1.90625-.570313-3.679687-.953126-5.339844-1.128906-4.644531-1.710937-9.40625-1.738281-14.183593.035157-.402344.035157-.804688 0-1.203126 0-2.613281.058594-5.652343.269531-9.1875.929688-16.839843 28.699219-18.105468 28.726563-18.105468zm-117.390625 40.28125c-8.652344-7.105469-16.132812-15.53125-22.160156-24.96875 6.917968 3.429687 14.453125 5.429687 22.160156 5.886718 7.703125-.460937 15.234375-2.46875 22.148438-5.898437-6.023438 9.441406-13.496094 17.871094-22.148438 24.980469zm-19.714844-52.742188c3.808594 3.648438 8.9375 5.59375 14.210938 5.394532h11.03125c5.269531.195312 10.394531-1.75 14.203125-5.398438 1.503906 2.9375 3.292969 6.210938 5.757812 10.195312-7.726562 4.90625-16.421875 8.089844-25.488281 9.335938-9.0625-1.25-17.753906-4.433594-25.476562-9.335938 2.464843-3.992187 4.273437-7.265624 5.757812-10.203124v.011718zm-11.808594-75.464844c.980469-16.8125 28.746094-18.078124 28.777344-18.078124h5.269532c.285156 0 28.027343 1.152343 29.019531 18.082031.859375 8.230469.347656 16.542969-1.507813 24.601562-.789062 2.984375-1.214844 6.054688-1.265625 9.144531 0 .570313.042969 1.125.066407 1.6875v.21875c0 .871094.046874 1.753907.097656 2.609376 1.371094 5.214843-.925782 10.703124-5.601563 13.382812-3.835937 2.933594-7.28125 6.34375-10.25 10.148438-3.433593 4.15625-4.191406 4.949218-7.566406 4.949218h-11.019531c-3.378906 0-4.132813-.785156-7.566406-4.949218-2.96875-3.808594-6.410157-7.222657-10.25-10.152344-4.671876-2.6875-6.964844-8.171875-5.59375-13.386719.046874-.847656.0625-1.730469.097656-2.605469 0-.074218 0-.144531 0-.21875 0-.566406.0625-1.117187.0625-1.691406-.046875-3.085938-.472656-6.160156-1.265625-9.144531-1.855469-8.058594-2.367188-16.371094-1.503907-24.597657zm-120.140624 106.003907c.984374-16.8125 28.75-18.078125 28.777343-18.078125h5.273438c.28125 0 28.027343 1.152344 29.015625 18.082031.207031 3.535156.285156 6.546875.269531 9.144531-.042969.445313-.042969.890625 0 1.335938-.027344 4.765625-.613281 9.507812-1.738281 14.136718-.375 1.625-.707032 3.363282-.945313 5.226563 0 .078125-.042969.140625-.042969.21875v.144531c-.171874 1.167969-.265624 2.347656-.289062 3.53125 0 .574219.039062 1.125.0625 1.6875v.222656c0 .867188.050781 1.75.097656 2.605469 1.371094 5.214844-.925781 10.703125-5.601562 13.386719-3.835938 2.929688-7.28125 6.339844-10.25 10.148438-3.433594 4.152343-4.191406 4.945312-7.566406 4.945312h-11.042969c-3.375 0-4.132813-.785156-7.566407-4.945312-2.96875-3.808594-6.410156-7.21875-10.246093-10.148438-4.675781-2.6875-6.96875-8.171875-5.597657-13.386719.046876-.847656.0625-1.730469.097657-2.605469 0-.074218 0-.144531 0-.222656 0-.5625.0625-1.113281.0625-1.6875-.046875-3.085937-.472657-6.160156-1.261719-9.144531-1.859375-8.058594-2.367188-16.371094-1.507812-24.597656zm31.527343 128.207031c-8.65625-7.105469-16.136719-15.53125-22.164062-24.96875 6.917969 3.429688 14.457031 5.429688 22.164062 5.890625 7.703125-.464844 15.234375-2.472656 22.148438-5.902344-6.023438 9.441407-13.496094 17.871094-22.148438 24.980469zm0-33.214844c-9.066406-1.25-17.753906-4.433594-25.476562-9.335937 2.464843-3.992188 4.238281-7.265625 5.757812-10.203125 3.808594 3.652344 8.9375 5.605468 14.210938 5.40625h11.03125c5.273437.199218 10.398437-1.75 14.207031-5.398438 1.503906 2.9375 3.292969 6.210938 5.757812 10.195313-7.726562 4.90625-16.421874 8.089843-25.488281 9.335937zm77.734375 42.402344c0 23.039062-57.566406 28.269531-77.734375 28.269531-20.171875 0-77.738281-5.195312-77.738281-28.269531-.8125-10.355469 2.347656-20.636719 8.835938-28.75 7.757812-7.023438 17.453124-11.546875 27.820312-12.980469 2.742188 9.539063 11.125 26.8125 36.664062 47.25.171876.132813.375.167969.558594.28125.773438.492188 1.621094.847657 2.515625 1.046875.882813.144532 1.78125.144532 2.664063 0 .898437-.199218 1.753906-.554687 2.53125-1.046875.175781-.117187.386718-.148437.558594-.289062 25.546874-20.4375 33.921874-37.710938 36.660156-47.25 10.371094 1.433593 20.066406 5.957031 27.824218 12.984375 6.492188 8.113281 9.652344 18.394531 8.839844 28.753906zm42.402344-77.734375c-23.800781 0-64.519531-5.597656-74.996094-20.375 5.160156-3.003906 8.996094-7.839844 10.75-13.546875 2.035156-10.707031-.535156-18.21875-6.824218-20.191406.65625-1.003906 1.386718-1.960938 2.175781-2.871094 7.746093-7.039062 17.441406-11.566406 27.816406-12.988281 2.734375 9.539062 11.117187 26.8125 36.664063 47.257812.570312.316407 1.144531.628907 1.714843.945313.855469.367187 1.769531.558594 2.699219.566406.929688-.019531 1.84375-.222656 2.691406-.601562.574219-.316407 1.144532-.632813 1.71875-.945313 25.546875-20.4375 33.921875-37.71875 36.664063-47.257813 10.375 1.421876 20.078125 5.957032 27.828125 13.003907.792968.90625 1.519531 1.871093 2.183594 2.875-6.273438 2.015625-8.855469 9.5-6.785157 20.535156 1.824219 5.566406 5.628907 10.269531 10.695313 13.210937-10.46875 14.785157-51.195313 20.382813-74.996094 20.382813zm120.136719 106.003906c-20.167969 0-77.734375-5.195312-77.734375-28.269531-.8125-10.355469 2.34375-20.636719 8.832031-28.75 7.761719-7.023438 17.457031-11.546875 27.824219-12.980469 2.742187 9.539063 11.121094 26.8125 36.664062 47.25.167969.132813.375.167969.558594.289063.769531.492187 1.621094.84375 2.515625 1.046875 1.320313.273437 2.691406.136719 3.933594-.390625.441406-.171875.863281-.390625 1.257812-.648438.179688-.121094.390625-.148437.558594-.289062 25.546875-20.4375 33.921875-37.710938 36.664063-47.25 10.367187 1.433594 20.0625 5.957031 27.824218 12.980468 6.488282 8.109376 9.648438 18.386719 8.839844 28.742188 0 23.039062-57.566406 28.269531-77.738281 28.269531zm0 0" fill="#7594ac" data-original="#000000" style="" class=""/><path xmlns="http://www.w3.org/2000/svg" d="m97.847656 129.859375c-4.136718 4.140625-4.136718 10.847656 0 14.988281l8.742188 8.761719c3.445312 3.449219 3.445312 9.039063 0 12.488281-1.65625 1.65625-3.902344 2.589844-6.246094 2.589844s-4.589844-.933594-6.25-2.589844l-8.742188-8.761718c-4.136718-4.128907-10.835937-4.128907-14.972656 0l-8.769531 8.75c-1.65625 1.65625-3.90625 2.585937-6.25 2.585937-2.339844 0-4.589844-.929687-6.246094-2.585937-3.445312-3.449219-3.445312-9.039063 0-12.488282l8.742188-8.742187c4.140625-4.140625 4.140625-10.851563 0-14.988281l-8.71875-8.765626c-3.445313-3.449218-3.445313-9.035156 0-12.484374 1.65625-1.660157 3.902343-2.589844 6.246093-2.589844s4.589844.929687 6.246094 2.589844l8.75 8.746093c4.140625 4.128907 10.839844 4.128907 14.976563 0l8.761719-8.734375c1.65625-1.65625 3.90625-2.585937 6.246093-2.585937 2.34375 0 4.589844.929687 6.25 2.585937 3.445313 3.449219 3.445313 9.039063 0 12.488282zm0 0" fill="#7594ac" data-original="#000000" style="" class=""/><path xmlns="http://www.w3.org/2000/svg" d="m338.125 129.859375c-4.140625 4.140625-4.140625 10.847656 0 14.988281l8.742188 8.761719c3.445312 3.449219 3.445312 9.039063 0 12.488281-1.65625 1.65625-3.90625 2.589844-6.246094 2.589844-2.34375 0-4.59375-.933594-6.25-2.589844l-8.742188-8.761718c-4.136718-4.128907-10.835937-4.128907-14.972656 0l-8.769531 8.75c-1.660157 1.65625-3.90625 2.585937-6.25 2.585937s-4.589844-.929687-6.246094-2.585937c-3.445313-3.449219-3.445313-9.039063 0-12.488282l8.742187-8.742187c4.136719-4.140625 4.136719-10.851563 0-14.988281l-8.71875-8.765626c-3.449218-3.449218-3.449218-9.035156 0-12.484374 1.65625-1.660157 3.902344-2.589844 6.246094-2.589844s4.589844.929687 6.246094 2.589844l8.75 8.746093c4.136719 4.128907 10.835938 4.128907 14.972656 0l8.765625-8.734375c1.65625-1.65625 3.902344-2.585937 6.246094-2.585937s4.589844.929687 6.246094 2.585937c3.449219 3.449219 3.449219 9.039063 0 12.488282zm0 0" fill="#7594ac" data-original="#000000" style="" class=""/><path xmlns="http://www.w3.org/2000/svg" d="m199.101562 57.550781c-2.757812 2.757813-7.230468 2.757813-9.992187 0l-19.984375-19.988281c-2.757812-2.757812-2.757812-7.230469 0-9.992188 2.761719-2.757812 7.234375-2.757812 9.992188 0l7.5 7.5c4.136718 4.136719 10.847656 4.136719 14.988281 0l32.507812-32.507812c2.757813-2.757812 7.234375-2.757812 9.992188 0 2.757812 2.757812 2.757812 7.234375 0 9.992188zm0 0" fill="#7594ac" data-original="#000000" style="" class=""/></g></svg>
