<?xml version="1.0" encoding="iso-8859-1"?>
<!-- Generator: Adobe Illustrator 19.0.0, SVG Export Plug-In . SVG Version: 6.00 Build 0)  -->
<svg version="1.1" id="Capa_1" xmlns="http://www.w3.org/2000/svg" xmlns:xlink="http://www.w3.org/1999/xlink" x="0px" y="0px"
	 viewBox="0 0 464 464" style="enable-background:new 0 0 464 464;" xml:space="preserve">
<path style="fill:#F8C09C;" d="M312.672,25.456l-0.96-0.592L320,0h-74.744C216.28,0.001,188.49,11.511,168,32h-7.32
	c-14.35,0-26.706,10.128-29.52,24.2c-1.979,9.873,1.111,20.081,8.232,27.2L160,104v128l72,24l72-24V120l17.496-17.496
	c19.345-19.339,19.35-50.698,0.011-70.043c-2.661-2.662-5.618-5.012-8.811-7.005H312.672z"/>
<path style="fill:#7D8F9F;" d="M312.672,25.456l-0.96-0.592L320,0h-74.744C216.28,0.001,188.49,11.511,168,32h-7.32
	c-14.35,0-26.706,10.128-29.52,24.2c-1.979,9.873,1.111,20.081,8.232,27.2L160,104l32-40l49.88,5.544
	c14.35,1.592,28.826-1.567,41.208-8.992c2.785-1.694,5.44-3.593,7.944-5.68C299.455,66.934,303.981,81.288,304,96v24l17.496-17.496
	c19.345-19.339,19.35-50.698,0.011-70.043c-2.661-2.662-5.618-5.012-8.811-7.005H312.672z"/>
<path style="fill:#F6F6E7;" d="M304,232l-72,24l-72-24v2.176C159.998,299.373,185.898,361.9,232,408
	c46.102-46.1,72.002-108.627,72-173.824V232z"/>
<path style="fill:#2276BB;" d="M310.832,244.168l-6.904-7.112C303.194,301.244,277.378,362.597,232,408
	c-45.378-45.403-71.194-106.756-71.928-170.944l-6.904,7.112C95.984,303.058,63.998,381.914,64,464h336
	C400.002,381.914,368.016,303.058,310.832,244.168z"/>
<path style="fill:#88D0EF;" d="M198.144,365.6c9.686,15.34,21.04,29.56,33.856,42.4c12.816-12.84,24.17-27.06,33.856-42.4L232,264
	L198.144,365.6z"/>
<g>
	<path style="fill:#1D5C88;" d="M232,456c-0.86-0.002-1.713-0.142-2.528-0.416L137.6,424.968l-36.6,29.28
		c-3.451,2.761-8.487,2.203-11.248-1.248c-2.761-3.451-2.203-8.487,1.248-11.248l0,0l43.4-34.72l100.128,33.384
		c4.189,1.406,6.444,5.942,5.038,10.13C238.474,453.798,235.43,455.992,232,456z"/>
	<path style="fill:#1D5C88;" d="M232,456c-4.418,0.007-8.006-3.568-8.013-7.987c-0.006-3.345,2.071-6.341,5.205-7.509l64-24
		c4.14-1.546,8.75,0.556,10.296,4.696c1.546,4.14-0.556,8.75-4.696,10.296l0,0l-64,24C233.898,455.824,232.953,455.995,232,456
		L232,456z"/>
</g>
<path style="fill:#F8C09C;" d="M288,416l56-24l15.712,15.712c5.306,5.303,8.287,12.498,8.288,20
	C368,443.335,355.335,456,339.712,456c-7.502-0.001-14.697-2.982-20-8.288L288,416z"/>
<g>
</g>
<g>
</g>
<g>
</g>
<g>
</g>
<g>
</g>
<g>
</g>
<g>
</g>
<g>
</g>
<g>
</g>
<g>
</g>
<g>
</g>
<g>
</g>
<g>
</g>
<g>
</g>
<g>
</g>
</svg>
