<?xml version="1.0"?>
<svg xmlns="http://www.w3.org/2000/svg" xmlns:xlink="http://www.w3.org/1999/xlink" xmlns:svgjs="http://svgjs.com/svgjs" version="1.1" width="512" height="512" x="0" y="0" viewBox="0 0 512 512" style="enable-background:new 0 0 512 512" xml:space="preserve" class=""><g><g xmlns="http://www.w3.org/2000/svg"><g><path d="m256 30c-10.056 0-22.915 15.554-31.299 42.5h62.599c-8.385-26.946-21.244-42.5-31.3-42.5z" fill="#7594ac" data-original="#000000" style="" class=""/><path d="m186 135c0-11.282.651-22.154 1.881-32.5h-62.917c-2.583 10.414-3.964 21.298-3.964 32.5s1.381 22.086 3.964 32.5h62.917c-1.23-10.346-1.881-21.218-1.881-32.5z" fill="#7594ac" data-original="#000000" style="" class=""/><path d="m293.841 102.5h-75.682c-1.375 10-2.159 20.866-2.159 32.5s.784 22.5 2.159 32.5h75.682c1.375-10 2.159-20.866 2.159-32.5s-.784-22.5-2.159-32.5z" fill="#7594ac" data-original="#000000" style="" class=""/><path d="m256 240c10.056 0 22.915-15.554 31.299-42.5h-62.599c8.385 26.946 21.244 42.5 31.3 42.5z" fill="#7594ac" data-original="#000000" style="" class=""/><path d="m318.578 72.5h57.053c-22.585-43.056-67.731-72.5-119.631-72.5 28.063 0 51.273 28.701 62.578 72.5z" fill="#7594ac" data-original="#000000" style="" class=""/><path d="m387.036 167.5c2.583-10.414 3.964-21.298 3.964-32.5s-1.381-22.086-3.964-32.5h-62.917c1.23 10.346 1.881 21.218 1.881 32.5s-.651 22.154-1.881 32.5z" fill="#7594ac" data-original="#000000" style="" class=""/><path d="m318.578 197.5c-11.305 43.799-34.515 72.5-62.578 72.5 51.9 0 97.046-29.444 119.631-72.5z" fill="#7594ac" data-original="#000000" style="" class=""/><path d="m193.422 197.5h-57.053c22.585 43.056 67.731 72.5 119.631 72.5-28.063 0-51.273-28.701-62.578-72.5z" fill="#7594ac" data-original="#000000" style="" class=""/><path d="m193.422 72.5c11.305-43.799 34.515-72.5 62.578-72.5-51.9 0-97.046 29.444-119.631 72.5z" fill="#7594ac" data-original="#000000" style="" class=""/></g><g><g><path d="m297 452c-8.284 0-15 6.716-15 15l.001 30c0 8.284 6.716 15 15 15h160c8.284 0 15-6.716 15-15l-.001-30c0-8.284-6.716-15-15-15z" fill="#7594ac" data-original="#000000" style="" class=""/><g><path d="m497 122h-5c-30.376 0-55 24.624-55 55v29.34c5.117 2.915 9.937 6.536 14.298 10.896 26.32 26.32 26.32 69.143.002 95.462l-44.09 44.09c-5.858 5.858-15.355 5.858-21.213 0s-5.858-15.355 0-21.213l44.09-44.09c14.621-14.621 14.621-38.412-.001-53.034-14.621-14.619-38.412-14.619-53.032.002l-53.085 53.085c-14.166 14.165-21.968 33-21.968 53.034l-.001 77.428h150v-10.746l57.767-93.659c1.46-2.366 2.233-5.093 2.233-7.874v-172.721c0-8.284-6.716-15-15-15z" fill="#7594ac" data-original="#000000" style="" class=""/></g></g><g><path d="m215 452c8.284 0 15 6.716 15 15l-.001 30c0 8.284-6.716 15-15 15h-160c-8.284 0-15-6.716-15-15l.001-30c0-8.284 6.716-15 15-15z" fill="#7594ac" data-original="#000000" style="" class=""/><g><path d="m210 344.571c0-20.034-7.802-38.869-21.968-53.034l-53.085-53.085c-14.621-14.621-38.412-14.621-53.032-.002-14.622 14.622-14.623 38.413-.001 53.034l44.09 44.09c5.858 5.858 5.858 15.355 0 21.213s-15.355 5.858-21.213 0l-44.09-44.09c-26.318-26.318-26.318-69.142.002-95.462 4.361-4.36 9.181-7.981 14.298-10.896v-29.339c0-30.376-24.624-55-55-55h-5c-8.284 0-15 6.716-15 15v172.721c0 2.781.773 5.508 2.233 7.874l57.766 93.659v10.746h150z" fill="#7594ac" data-original="#000000" style="" class=""/></g></g></g></g></g></svg>
