<svg height="512" viewBox="0 0 64 64" width="512" xmlns="http://www.w3.org/2000/svg"><g id="flat"><path d="m12 55h-2a1 1 0 0 1 -1-1v-4a1 1 0 0 1 1-1h2a3 3 0 0 1 0 6zm-1-2h1a1 1 0 0 0 0-2h-1z" fill="#995f5b"/><path d="m39 3a13 13 0 0 1 13 13v21a0 0 0 0 1 0 0h-26a0 0 0 0 1 0 0v-21a13 13 0 0 1 13-13z" fill="#394d5c"/><path d="m24 22-2.163-5a7.445 7.445 0 0 0 1.163-4 10 10 0 1 0 -10 10 10.563 10.563 0 0 0 6-1.866z" fill="#f9bb4b"/><path d="m14 16h-2v-3a1 1 0 0 1 1-1 2 2 0 1 0 -2-2h-2a4 4 0 1 1 5 3.873z" fill="#f4f4e6"/><path d="m27 37h26v20h-26z" fill="#e33e5c"/><path d="m27 57h-4a4 4 0 0 1 -4-4v-1l3-12a4.188 4.188 0 0 1 4-3h1z" fill="#b11e48"/><path d="m23.179 50.929h5.385v2h-5.385z" fill="#e33e5c" transform="matrix(.929 -.371 .371 .929 -17.421 13.307)"/><path d="m53 57h4a4 4 0 0 0 4-4v-1l-3-12a4.188 4.188 0 0 0 -4-3h-1z" fill="#b11e48"/><path d="m53.129 49.236h2v5.385h-2z" fill="#e33e5c" transform="matrix(.371 -.928 .928 .371 -14.189 82.9)"/><path d="m31 41h18v16h-18z" fill="#143441"/><path d="m3 57h58v4h-58z" fill="#ad6327"/><path d="m35 33h8a4.873 4.873 0 0 0 5-5v-15h-18v15a4.873 4.873 0 0 0 5 5z" fill="#ffd782"/><path d="m43 16h2v2h-2z" fill="#394d5c"/><path d="m33 16h2v2h-2z" fill="#394d5c"/><path d="m48 25a4 4 0 0 0 0-8z" fill="#f9bb4b"/><path d="m30 24a4 4 0 0 1 0-8z" fill="#f9bb4b"/><path d="m38 18h2v4h-2z" fill="#394d5c"/><g fill="#143441"><path d="m32 10h2v3h-2z"/><path d="m36 10h2v3h-2z"/><path d="m40 10h2v3h-2z"/><path d="m44 10h2v3h-2z"/></g><path d="m43.485 28.857-4.485-2.691-4.485 2.691-1.03-1.714 5-3a1 1 0 0 1 1.03 0l5 3z" fill="#394d5c"/><circle cx="40" cy="47" fill="#ececec" r="2"/><path d="m36 37h8v4h-8z" fill="#ffd782"/><path d="m3 48h8v9h-8z" fill="#66342e"/><path d="m6 45h-2v-2a2 2 0 0 1 -2-2v-2h2v2a2 2 0 0 1 2 2z" fill="#50b4f8"/><path d="m11 45h-2v-2a2 2 0 0 1 -2-2v-2h2v2a2 2 0 0 1 2 2z" fill="#50b4f8"/><path d="m12 18h2v2h-2z" fill="#f4f4e6"/><path d="m27 51h4a2 2 0 0 1 2 2v4a0 0 0 0 1 0 0h-6a0 0 0 0 1 0 0v-6a0 0 0 0 1 0 0z" fill="#ffd782"/><path d="m47 51h6a0 0 0 0 1 0 0v4a2 2 0 0 1 -2 2h-4a0 0 0 0 1 0 0v-6a0 0 0 0 1 0 0z" fill="#ffd782" transform="matrix(-1 0 0 -1 100 108)"/></g></svg>